<svg xmlns="http://www.w3.org/2000/svg" aria-hidden="true" style="position:absolute;width:0;height:0;overflow:hidden"><defs><symbol id="icon-logo" viewBox="0 0 32 32"><path fill="#1c1c24" d="M2.555 10.693S2.081 1.881 3.996 1.44s5.218 2.721 5.218 2.721l-6.659 6.532zm18.087-6.317s3.535-3.52 6.041-2.934c2.504.586.59 7.545.59 7.545l-6.631-4.611z" style="fill:var(--color4, #1c1c24)"/><path fill="#f07f2e" stroke="#1c1c24" stroke-miterlimit="10" stroke-width="0.5333" d="M27.558 26.809c-2.653 2.097-4.428 2.782-7.444 3.598-2.013.545-7.083.517-11.808-1.384-3.31-1.448-4.607-3.022-5.232-3.88-.544-.746-1.65-2.402-1.713-4.214-.092-2.637-.015-5.21 1.196-10.232 1.211-5.024 6.659-6.532 6.659-6.532 5.953-1.406 10.897-.301 12.612 0s6.589 3.387 7.008 9.571c.064.925 1.1 4.214 1.2 6.977.03.847.055 1.975-.367 3.133-.487 1.335-1.573 2.513-2.11 2.963z" style="fill:var(--color5, #f07f2e);stroke:var(--color4, #1c1c24)"/><path fill="#1c1c24" d="M11.148 14.33c.042-.079.09-.155.142-.23l.075-.107.044-.057a3.146 3.146 0 0 1 .351-.363c.016-.014.095-.077.033-.029s.028-.019.048-.033a1.56 1.56 0 0 1 .157-.095c.026-.014.055-.026.083-.04.055-.028-.098.031.009-.002a2.22 2.22 0 0 1 .178-.047c.079-.02-.101.003-.019.003.036 0 .072-.005.109-.003.033 0 .065.006.097.006.059 0-.095-.026-.039-.005.012.005.03.005.044.009.034.009.069.017.101.028l.044.015c.092.026-.053-.034-.008-.003.076.051.165.09.243.141l.047.034c-.075-.057 0 .001.014.015.042.039.086.076.126.116.209.208.336.389.495.645a.479.479 0 0 0 .639.168c.213-.124.301-.422.168-.636-.5-.802-1.259-1.613-2.297-1.432-.623.109-1.111.599-1.468 1.088-.081.11-.159.225-.223.344a.474.474 0 0 0 .168.636c.21.119.52.053.639-.169zm13.653-.665a2.59 2.59 0 0 1 .207-.322l.041-.056c.034-.047-.078.095-.008.012a3.25 3.25 0 0 1 .217-.239c.04-.04.083-.079.126-.115.016-.014.093-.076.03-.026s.023-.017.044-.03c.048-.033.098-.064.15-.092l.078-.039c.055-.028-.103.033.005 0 .056-.017.114-.031.171-.045.078-.019-.104.005-.023.003.034 0 .069-.005.104-.003.031 0 .062.006.094.006.059 0-.098-.026-.044-.005.013.005.028.005.041.008l.097.026c.014.005.028.011.042.014.09.026-.056-.036-.012-.006.073.05.157.085.232.137l.044.033c-.079-.06-.006-.003.009.011.041.037.083.073.121.112.204.203.313.362.472.614a.479.479 0 0 0 .639.168c.213-.124.301-.422.168-.636-.485-.776-1.218-1.556-2.222-1.381-.603.105-1.072.579-1.418 1.05a2.81 2.81 0 0 0-.213.33.474.474 0 0 0 .168.636c.213.124.523.057.642-.166z" style="fill:var(--color4, #1c1c24)"/><path fill="none" stroke="#1c1c24" stroke-miterlimit="10" stroke-width="0.5333" d="m14.163 18.362-4.835-.155m4.915 1.814-4.197.621m16.852-2.996 4.835-.155M26.82 19.3l4.197.619m-11.035-.405s2.339 3.224 4.317-.059m-2.139-2.35v3.641" style="stroke:var(--color4, #1c1c24)"/><path fill="#1c1c24" d="M22.117 17.269c.979 0 1.773-.557 1.773-1.244s-.794-1.244-1.773-1.244c-.979 0-1.773.557-1.773 1.244s.794 1.244 1.773 1.244z" style="fill:var(--color4, #1c1c24)"/><path fill="#1c1c24" stroke="#1c1c24" stroke-miterlimit="10" stroke-width="0.5333" d="M6.587 15.508c1.572-1.621-3.453-5.024-3.823-5.169-.016-.006-1.429 6.361-1.356 10.195.017.895.187 1.827.187 1.827.294.261.487 1.1 2.69.028 1.232-.6 1.475-1.823.354-2.059-2.158-.451.006-.932-.347-1.786-.893-2.153.643-1.331 2.297-3.036zm21.348 6.324c.182-1.907 1.972-1.369 1.972-1.369.596 3.481-1.487 5.845-2.989 6.672-.365 0-.714-2.128.106-2.399s.729-.998.911-2.904z" style="fill:var(--color4, #1c1c24);stroke:var(--color4, #1c1c24)"/></symbol><symbol id="icon-bi_columns-gap" viewBox="0 0 32 32"><path fill="#92929d" d="M12 2v6H2V2h10zM2 0a2 2 0 0 0-2 2v6a2 2 0 0 0 2 2h10a2 2 0 0 0 2-2V2a2 2 0 0 0-2-2H2zm28 24v6H20v-6h10zm-10-2a2 2 0 0 0-2 2v6a2 2 0 0 0 2 2h10a2 2 0 0 0 2-2v-6a2 2 0 0 0-2-2H20zm-8-6v14H2V16h10zM2 14a2 2 0 0 0-2 2v14a2 2 0 0 0 2 2h10a2 2 0 0 0 2-2V16a2 2 0 0 0-2-2H2zM30 2v14H20V2h10zM20 0a2 2 0 0 0-2 2v14a2 2 0 0 0 2 2h10a2 2 0 0 0 2-2V2a2 2 0 0 0-2-2H20z" style="fill:var(--color6, #92929d)"/></symbol><symbol id="icon-bi_person-plus" viewBox="0 0 32 32"><path fill="#92929d" d="M12 16a5.996 5.996 0 0 0 6-6A6.002 6.002 0 0 0 7.757 5.757 6 6 0 0 0 12 16zm4-6a4.003 4.003 0 0 1-4 4 4.003 4.003 0 0 1-4-4 4.003 4.003 0 0 1 4-4 4.003 4.003 0 0 1 4 4zm8 16c0 2-2 2-2 2H2s-2 0-2-2 2-8 12-8 12 6 12 8zm-2-.008c-.002-.492-.308-1.972-1.664-3.328C19.032 21.36 16.578 20 12 20c-4.58 0-7.032 1.36-8.336 2.664C2.308 24.02 2.004 25.5 2 25.992h20zM27 10a.997.997 0 0 1 1 1v3h3a.997.997 0 0 1 1 1 .997.997 0 0 1-1 1h-3v3a.997.997 0 0 1-1 1 .997.997 0 0 1-1-1v-3h-3a.997.997 0 0 1-1-1 .997.997 0 0 1 1-1h3v-3a.997.997 0 0 1 1-1z" style="fill:var(--color6, #92929d)"/></symbol><symbol id="icon-bi_briefcase" viewBox="0 0 32 32"><path fill="#92929d" d="M13 2a3.004 3.004 0 0 0-3 3v1H3a3.004 3.004 0 0 0-3 3v16a3.004 3.004 0 0 0 3 3h26a3.004 3.004 0 0 0 3-3V9a3.004 3.004 0 0 0-3-3h-7V5a3.004 3.004 0 0 0-3-3h-6zm0 2h6a.997.997 0 0 1 1 1v1h-8V5a.997.997 0 0 1 1-1zm3.772 13.828L30 14.302V25a.997.997 0 0 1-1 1H3a.997.997 0 0 1-1-1V14.3l13.228 3.528a2.994 2.994 0 0 0 1.544 0zM3 8h26a.997.997 0 0 1 1 1v3.232l-13.742 3.664a1.003 1.003 0 0 1-.516 0L2 12.232V9a.997.997 0 0 1 1-1z" style="fill:var(--color6, #92929d)"/></symbol><symbol id="icon-bi_coin" viewBox="0 0 32 32"><path fill="#92929d" d="M11 19.022c.152 1.908 1.66 3.394 4.364 3.57V24h1.2v-1.418c2.8-.196 4.436-1.692 4.436-3.864 0-1.974-1.252-2.992-3.49-3.52l-.946-.224V11.14c1.2.136 1.964.792 2.148 1.7h2.104c-.152-1.838-1.728-3.276-4.252-3.432V8h-1.2v1.438c-2.39.234-4.02 1.672-4.02 3.706 0 1.8 1.212 2.944 3.226 3.414l.794.196v4.068c-1.23-.186-2.044-.86-2.228-1.8H11zm4.354-4.332c-1.18-.274-1.82-.832-1.82-1.672 0-.94.69-1.644 1.83-1.85v3.52l-.01.002zm1.384 2.386c1.434.332 2.096.87 2.096 1.82 0 1.084-.824 1.828-2.27 1.964v-3.824l.174.04z" style="fill:var(--color6, #92929d)"/><path fill="#92929d" d="M16 30a14 14 0 1 1 0-28 14 14 0 0 1 0 28zm0 2a16.003 16.003 0 0 0 16-16A15.997 15.997 0 0 0 16 0 15.997 15.997 0 0 0 0 16a16.003 16.003 0 0 0 16 16z" style="fill:var(--color6, #92929d)"/><path fill="#92929d" d="M16 27a11 11 0 1 1 0-22 11 11 0 0 1 0 22zm0 1a12 12 0 1 0 .002-24.003A12 12 0 0 0 16 28.002z" style="fill:var(--color6, #92929d)"/></symbol><symbol id="icon-bi_clipboard-check" viewBox="0 0 32 32"><path fill="#92929d" d="M21.708 14.292a.991.991 0 0 1 .293.708 1.002 1.002 0 0 1-.293.708l-6 6a.991.991 0 0 1-.708.293 1.002 1.002 0 0 1-.708-.293l-3-3a.991.991 0 0 1-.293-.708 1.006 1.006 0 0 1 .293-.708 1 1 0 0 1 1.416 0L15 19.586l5.292-5.294a.991.991 0 0 1 .708-.293 1.006 1.006 0 0 1 .708.293z" style="fill:var(--color6, #92929d)"/><path fill="#92929d" d="M8 3H6a4.003 4.003 0 0 0-4 4v21a4.003 4.003 0 0 0 4 4h20a4.003 4.003 0 0 0 4-4V7a4.003 4.003 0 0 0-4-4h-2v2h2a2 2 0 0 1 2 2v21a2 2 0 0 1-2 2H6a2 2 0 0 1-2-2V7a2 2 0 0 1 2-2h2V3z" style="fill:var(--color6, #92929d)"/><path fill="#92929d" d="M19 2a.997.997 0 0 1 1 1v2a.997.997 0 0 1-1 1h-6a.997.997 0 0 1-1-1V3a.997.997 0 0 1 1-1h6zm-6-2a3.004 3.004 0 0 0-3 3v2a3.004 3.004 0 0 0 3 3h6a3.004 3.004 0 0 0 3-3V3a3.004 3.004 0 0 0-3-3h-6z" style="fill:var(--color6, #92929d)"/></symbol><symbol id="icon-bi_envelope" viewBox="0 0 32 32"><path fill="#92929d" d="M0 8a4.003 4.003 0 0 1 4-4h24a4.003 4.003 0 0 1 4 4v16a4.003 4.003 0 0 1-4 4H4a4.003 4.003 0 0 1-4-4V8zm4-2a2 2 0 0 0-2 2v.434l14 8.4 14-8.4V8a2 2 0 0 0-2-2H4zm26 4.766-9.416 5.65L30 22.21V10.766zm-.068 13.752-11.28-6.942L16 19.166l-2.652-1.59-11.28 6.94A2 2 0 0 0 4 26h24a2.003 2.003 0 0 0 1.932-1.482zM2 22.21l9.416-5.794L2 10.766V22.21z" style="fill:var(--color6, #92929d)"/></symbol><symbol id="icon-notification" viewBox="0 0 45 32"><path fill="#fc5a5a" d="M16 0h12.8c8.837 0 16 7.163 16 16s-7.163 16-16 16H16C7.163 32 0 24.837 0 16S7.163 0 16 0z" style="fill:var(--color1, #fc5a5a)"/><path fill="#fff" d="M27.364 19.691c0 .97-.226 1.794-.678 2.472a4.242 4.242 0 0 1-1.816 1.531c-.758.35-1.615.525-2.57.525s-1.816-.175-2.581-.525a4.242 4.242 0 0 1-1.816-1.531c-.445-.678-.667-1.502-.667-2.472 0-.634.12-1.214.361-1.739a4.217 4.217 0 0 1 1.039-1.389 4.774 4.774 0 0 1 1.597-.908 6.104 6.104 0 0 1 2.045-.328c.977 0 1.848.19 2.614.569.766.372 1.367.886 1.805 1.542.445.656.667 1.407.667 2.253zm-2.034-.044c0-.591-.128-1.112-.383-1.564-.255-.46-.612-.817-1.072-1.072s-.992-.383-1.597-.383c-.62 0-1.156.128-1.608.383a2.668 2.668 0 0 0-1.039 1.072c-.248.452-.372.973-.372 1.564 0 .612.12 1.137.361 1.575.248.43.598.762 1.05.995.46.226 1.003.339 1.63.339s1.167-.113 1.619-.339a2.447 2.447 0 0 0 1.039-.995c.248-.438.372-.963.372-1.575zm1.662-7.427c0 .773-.204 1.469-.612 2.089s-.966 1.108-1.673 1.466c-.707.357-1.509.536-2.406.536-.912 0-1.724-.179-2.439-.536-.707-.357-1.261-.846-1.663-1.466s-.602-1.316-.602-2.089c0-.926.201-1.714.602-2.363.408-.649.966-1.145 1.673-1.488s1.513-.514 2.417-.514c.911 0 1.721.171 2.428.514s1.262.839 1.663 1.488c.408.649.612 1.436.612 2.363zm-2.023.033c0-.532-.113-1.003-.339-1.411s-.54-.729-.941-.963c-.401-.241-.868-.361-1.4-.361s-.999.113-1.4.339a2.353 2.353 0 0 0-.93.941c-.219.408-.328.893-.328 1.455 0 .547.109 1.024.328 1.433.226.408.54.726.941.952s.868.339 1.4.339c.532 0 .995-.113 1.389-.339.401-.226.715-.543.941-.952s.339-.886.339-1.433z" style="fill:var(--color2, #fff)"/></symbol><symbol id="icon-bi_calendar4-range" viewBox="0 0 32 32"><path fill="#92929d" d="M7 0a.997.997 0 0 1 1 1v1h16V1a.997.997 0 0 1 1-1 .997.997 0 0 1 1 1v1h2a4.003 4.003 0 0 1 4 4v22a4.003 4.003 0 0 1-4 4H4a4.003 4.003 0 0 1-4-4V6a4.003 4.003 0 0 1 4-4h2V1a.997.997 0 0 1 1-1zM4 4a2 2 0 0 0-2 2v2h28V6a2 2 0 0 0-2-2H4zm26 6H2v18a2 2 0 0 0 2 2h24a2 2 0 0 0 2-2V10z" style="fill:var(--color6, #92929d)"/><path fill="#92929d" d="M18 15a.997.997 0 0 1 1-1h11v4H19a.997.997 0 0 1-1-1v-2zm-4 6v2a.997.997 0 0 1-1 1H2v-4h11a.997.997 0 0 1 1 1z" style="fill:var(--color6, #92929d)"/></symbol><symbol id="icon-bi_journal-text" viewBox="0 0 32 32"><path fill="#92929d" d="M10 21a.997.997 0 0 1 1-1h4a.997.997 0 0 1 1 1 .997.997 0 0 1-1 1h-4a.997.997 0 0 1-1-1zm0-4a.997.997 0 0 1 1-1h10a.997.997 0 0 1 1 1 .997.997 0 0 1-1 1H11a.997.997 0 0 1-1-1zm0-4a.997.997 0 0 1 1-1h10a.997.997 0 0 1 1 1 .997.997 0 0 1-1 1H11a.997.997 0 0 1-1-1zm0-4a.997.997 0 0 1 1-1h10a.997.997 0 0 1 1 1 .997.997 0 0 1-1 1H11a.997.997 0 0 1-1-1z" style="fill:var(--color6, #92929d)"/><path fill="#92929d" d="M6 0h20a4.003 4.003 0 0 1 4 4v24a4.003 4.003 0 0 1-4 4H6a4.003 4.003 0 0 1-4-4v-2h2v2a2 2 0 0 0 2 2h20a2 2 0 0 0 2-2V4a2 2 0 0 0-2-2H6a2 2 0 0 0-2 2v2H2V4a4.003 4.003 0 0 1 4-4z" style="fill:var(--color6, #92929d)"/><path fill="#92929d" d="M2 10V9a.997.997 0 0 1 1-1 .997.997 0 0 1 1 1v1h1a.997.997 0 0 1 1 1 .997.997 0 0 1-1 1H1a.997.997 0 0 1-1-1 .997.997 0 0 1 1-1h1zm0 6v-1a.997.997 0 0 1 1-1 .997.997 0 0 1 1 1v1h1a.997.997 0 0 1 1 1 .997.997 0 0 1-1 1H1a.997.997 0 0 1-1-1 .997.997 0 0 1 1-1h1zm0 6v-1a.997.997 0 0 1 1-1 .997.997 0 0 1 1 1v1h1a.997.997 0 0 1 1 1 .997.997 0 0 1-1 1H1a.997.997 0 0 1-1-1 .997.997 0 0 1 1-1h1z" style="fill:var(--color6, #92929d)"/></symbol><symbol id="icon-burgermenu" viewBox="0 0 32 32"><path fill="#fff" d="M0 28a1.335 1.335 0 0 1 1.334-1.334h29.333a1.335 1.335 0 0 1 .943 2.277c-.25.25-.589.391-.943.391H1.334A1.335 1.335 0 0 1 0 28zm0-8a1.335 1.335 0 0 1 1.334-1.334h29.333a1.335 1.335 0 0 1 .943 2.277c-.25.25-.589.391-.943.391H1.334A1.335 1.335 0 0 1 0 20zm0-8a1.335 1.335 0 0 1 1.334-1.334h29.333a1.335 1.335 0 0 1 .943 2.277c-.25.25-.589.391-.943.391H1.334A1.335 1.335 0 0 1 0 12zm0-8a1.335 1.335 0 0 1 1.334-1.334h29.333a1.335 1.335 0 0 1 .943 2.277c-.25.25-.589.391-.943.391H1.334A1.335 1.335 0 0 1 0 4z" style="fill:var(--color1, #fff)"/></symbol><symbol id="icon-bi_search" viewBox="0 0 32 32"><path fill="#92929d" d="M23.484 20.688a13 13 0 1 0-2.794 2.796h-.002c.06.08.124.156.196.23l7.7 7.7a2 2 0 0 0 2.83-2.828l-7.7-7.7a2.069 2.069 0 0 0-.23-.198zM24 13A10.998 10.998 0 0 1 8.79 23.163a11.012 11.012 0 0 1-5.954-5.953A10.998 10.998 0 0 1 5.221 5.222 11 11 0 0 1 23.999 13z" style="fill:var(--color6, #92929d)"/></symbol><symbol id="icon-bi_bell" viewBox="0 0 32 32"><path fill="#92929d" d="M16 32a4.003 4.003 0 0 0 4-4h-8a4.003 4.003 0 0 0 4 4zm0-28.164-1.594.322A8.005 8.005 0 0 0 8 12c0 1.256-.268 4.394-.918 7.484-.32 1.534-.752 3.132-1.326 4.516h20.488c-.574-1.384-1.004-2.98-1.326-4.516C24.268 16.394 24 13.256 24 12a7.998 7.998 0 0 0-6.406-7.84L16 3.836zM28.44 24c.446.894.962 1.602 1.56 2H2c.598-.398 1.114-1.106 1.56-2C5.36 20.4 6 13.76 6 12c0-4.84 3.44-8.88 8.01-9.802a2 2 0 1 1 3.98 0A10.002 10.002 0 0 1 26 12c0 1.76.64 8.4 2.44 12z" style="fill:var(--color6, #92929d)"/></symbol><symbol id="icon-plus" viewBox="0 0 32 32"><path fill="#fff" d="M16 0a2 2 0 0 1 2 2v12h12a2 2 0 0 1 0 4H18v12a2 2 0 0 1-4 0V18H2a2 2 0 0 1 0-4h12V2a2 2 0 0 1 2-2z" style="fill:var(--color1, #fff)"/></symbol><symbol id="icon-bi_plus" viewBox="0 0 32 32"><path fill="#92929d" d="M16 8a.997.997 0 0 1 1 1v6h6a.997.997 0 0 1 1 1 .997.997 0 0 1-1 1h-6v6a.997.997 0 0 1-1 1 .997.997 0 0 1-1-1v-6H9a.997.997 0 0 1-1-1 .997.997 0 0 1 1-1h6V9a.997.997 0 0 1 1-1z" style="fill:var(--color6, #92929d)"/></symbol><symbol id="icon-bi_dash" viewBox="0 0 32 32"><path fill="#92929d" d="M8 16a.997.997 0 0 1 1-1h14a.997.997 0 0 1 1 1 .997.997 0 0 1-1 1H9a.997.997 0 0 1-1-1z" style="fill:var(--color6, #92929d)"/></symbol><symbol id="icon-bi_arrow-clockwise" viewBox="0 0 32 32"><path fill="#82c43c" d="M16 6a10.006 10.006 0 0 0-9.594 7.19 10.005 10.005 0 0 0 4.201 11.229 10.005 10.005 0 0 0 11.957-.871 10.003 10.003 0 0 0 2.528-11.719c-.098-.239-.1-.506-.006-.747s.279-.435.513-.542a.999.999 0 0 1 1.309.455 12 12 0 1 1-10.907-6.994v2z" style="fill:var(--color2, #82c43c)"/><path fill="#82c43c" d="M16 8.932V1.068a.498.498 0 0 1 .82-.383l4.72 3.932a.5.5 0 0 1 0 .768l-4.72 3.932a.498.498 0 0 1-.82-.383z" style="fill:var(--color2, #82c43c)"/></symbol><symbol id="icon-bi_x-lg" viewBox="0 0 32 32"><path fill="#fc5a5a" d="M4.292 5.708A.991.991 0 0 1 3.999 5a1.006 1.006 0 0 1 .618-.925 1.01 1.01 0 0 1 .766 0c.121.05.232.124.325.217L16 14.586 26.292 4.292A.991.991 0 0 1 27 3.999a1.006 1.006 0 0 1 .925.618 1.006 1.006 0 0 1-.217 1.091L17.414 16l10.294 10.292a.991.991 0 0 1 .293.708 1.006 1.006 0 0 1-.618.925 1.006 1.006 0 0 1-1.091-.217L16 17.414 5.708 27.708a.991.991 0 0 1-.708.293 1.006 1.006 0 0 1-.925-.618 1.006 1.006 0 0 1 .217-1.091L14.586 16 4.292 5.708z" style="fill:var(--color3, #fc5a5a)"/></symbol><symbol id="icon-bi_check2" viewBox="0 0 32 32"><path fill="#fff" d="M27.708 7.292a.991.991 0 0 1 .293.708 1.002 1.002 0 0 1-.293.708l-14 14a.991.991 0 0 1-.708.293 1.002 1.002 0 0 1-.708-.293l-7-7A1 1 0 0 1 6 13.999a1 1 0 0 1 .708.293L13 20.586 26.292 7.292A.991.991 0 0 1 27 6.999a1.006 1.006 0 0 1 .708.293z" style="fill:var(--color1, #fff)"/></symbol><symbol id="icon-bi_gear" viewBox="0 0 32 32"><path fill="#92929d" d="M16 9.508a6.49 6.49 0 1 0 6.492 6.49A6.49 6.49 0 0 0 16 9.506zM11.508 16A4.489 4.489 0 0 1 16 11.508 4.489 4.489 0 0 1 20.492 16 4.489 4.489 0 0 1 16 20.492 4.489 4.489 0 0 1 11.508 16z" style="fill:var(--color6, #92929d)"/><path fill="#92929d" d="M19.592 2.686c-1.054-3.58-6.13-3.58-7.184 0l-.188.638a1.754 1.754 0 0 1-1.006 1.12 1.756 1.756 0 0 1-1.504-.079l-.584-.32c-3.28-1.784-6.866 1.804-5.08 5.082l.318.584a1.746 1.746 0 0 1-1.041 2.51l-.638.188c-3.58 1.054-3.58 6.13 0 7.184l.638.188a1.754 1.754 0 0 1 1.12 1.006 1.756 1.756 0 0 1-.079 1.504l-.32.584c-1.784 3.28 1.802 6.868 5.082 5.08l.584-.318a1.746 1.746 0 0 1 2.51 1.04l.188.638c1.054 3.58 6.13 3.58 7.184 0l.188-.638a1.754 1.754 0 0 1 1.006-1.12 1.74 1.74 0 0 1 1.504.08l.584.32c3.28 1.786 6.868-1.804 5.08-5.082l-.318-.584a1.746 1.746 0 0 1 1.04-2.51l.638-.188c3.58-1.054 3.58-6.13 0-7.184l-.638-.188a1.754 1.754 0 0 1-1.12-1.006 1.74 1.74 0 0 1 .08-1.504l.32-.584c1.786-3.28-1.804-6.866-5.082-5.08l-.584.318a1.746 1.746 0 0 1-2.51-1.041l-.188-.638zm-5.266.566c.492-1.67 2.856-1.67 3.348 0l.188.638a3.748 3.748 0 0 0 5.385 2.23l.582-.32c1.528-.83 3.2.84 2.368 2.37l-.318.584a3.756 3.756 0 0 0-.171 3.225 3.738 3.738 0 0 0 2.402 2.159l.636.188c1.67.492 1.67 2.856 0 3.348l-.638.188a3.748 3.748 0 0 0-2.23 5.385l.32.582c.83 1.528-.84 3.2-2.37 2.368l-.582-.318a3.76 3.76 0 0 0-3.227-.171 3.75 3.75 0 0 0-2.159 2.403l-.188.636c-.492 1.67-2.856 1.67-3.348 0l-.188-.638a3.737 3.737 0 0 0-2.16-2.401 3.755 3.755 0 0 0-3.225.171l-.584.32c-1.528.83-3.2-.84-2.368-2.37l.318-.582c.268-.491.423-1.036.452-1.594s-.066-1.116-.279-1.633a3.745 3.745 0 0 0-2.404-2.161l-.638-.188c-1.67-.492-1.67-2.856 0-3.348l.638-.188a3.742 3.742 0 0 0 2.229-5.382l-.32-.584c-.83-1.528.84-3.2 2.37-2.368l.584.318a3.756 3.756 0 0 0 3.225.171 3.748 3.748 0 0 0 2.16-2.401l.188-.638z" style="fill:var(--color6, #92929d)"/></symbol><symbol id="icon-up" viewBox="0 0 32 32"><path fill="#fff" d="M15.292 9.292A.991.991 0 0 1 16 8.999a1.002 1.002 0 0 1 .708.293l12 12A1 1 0 0 1 28 23.001a1 1 0 0 1-.708-.293L16 11.414 4.708 22.708A1 1 0 0 1 2.999 22c0-.266.106-.52.293-.708l12-12z" style="fill:var(--color1, #fff)"/></symbol><symbol id="icon-down" viewBox="0 0 32 32"><path fill="#fff" d="M3.292 9.292A.991.991 0 0 1 4 8.999a1.002 1.002 0 0 1 .708.293L16 20.586 27.292 9.292A.991.991 0 0 1 28 8.999a1.006 1.006 0 0 1 .925.618 1.006 1.006 0 0 1-.217 1.091l-12 12a.991.991 0 0 1-.708.293 1.002 1.002 0 0 1-.708-.293l-12-12A.991.991 0 0 1 2.999 10a1.002 1.002 0 0 1 .293-.708z" style="fill:var(--color1, #fff)"/></symbol><symbol id="icon-dash" viewBox="0 0 32 32"><path fill="#92929d" d="M8 16a.997.997 0 0 1 1-1h14a.997.997 0 0 1 1 1 .997.997 0 0 1-1 1H9a.997.997 0 0 1-1-1z" style="fill:var(--color6, #92929d)"/></symbol><symbol id="icon-location" viewBox="0 0 32 32"><path fill="#82c43c" d="M16 32s12-11.372 12-20A12.003 12.003 0 0 0 16 0 12.003 12.003 0 0 0 4 12c0 8.628 12 20 12 20zm0-14a5.996 5.996 0 0 1-6-6 6.002 6.002 0 0 1 10.243-4.243A6 6 0 0 1 16 18z" style="fill:var(--color2, #82c43c)"/></symbol><symbol id="icon-logo-sass" viewBox="0 0 46 32"><path fill="#fff" d="M46.202 22.506c-.133-1.076-.678-2.01-1.625-2.778a.368.368 0 0 0-.039-.04l-.048-.034-.015-.011-.584-.419a.353.353 0 0 0-.075-.032c-1.591-.947-4.224-1.61-8.253-.189-.962-1.618-1.071-2.914-.427-4.9.115-.346.008-.574-.335-.722-.69-.293-1.634-.144-2.304.033-.312.081-.5.258-.56.526-.424 1.986-1.657 3.801-2.85 5.552l-.07.103c-.735-1.558-.582-2.765-.07-4.277.102-.302.022-.502-.261-.652-.789-.407-1.973-.127-2.444.012-.598.174-1.239 1.789-1.954 3.723-.181.487-.336.903-.429 1.097-.221.451-.432.966-.656 1.512-.506 1.236-1.075 2.627-1.889 3.501-.296-.654.17-1.686.622-2.688.535-1.184 1.041-2.302.459-3.016a1.058 1.058 0 0 0-.752-.39 1.21 1.21 0 0 0-.555.09c.06-.51.063-.913-.086-1.399-.213-.694-.767-1.083-1.528-1.063-1.735.051-3.203 1.343-4.13 2.419-.617.722-1.986 1.273-3.188 1.756-.475.201-.926.382-1.303.562-.6-.507-1.363-1.019-2.167-1.56-2.257-1.515-4.814-3.233-4.903-5.562-.126-3.44 3.792-5.881 7.211-7.622 2.592-1.318 4.845-2.192 6.889-2.67 2.871-.671 5.296-.535 7.206.401 1.045.512 1.535 1.625 1.224 2.77-.812 2.975-4.179 5.013-7.058 5.93-1.734.553-3.21.784-4.514.708-1.634-.095-2.968-.915-3.539-1.264a1.86 1.86 0 0 0-.289-.162l-.026-.006a.289.289 0 0 0-.288.091c-.117.14-.076.361-.033.473.555 1.451 1.702 2.367 3.407 2.724a8.316 8.316 0 0 0 1.695.162c3.991 0 9.084-2.301 10.954-4.196 1.276-1.291 2.205-2.618 2.589-4.907.402-2.397-1.223-4.063-2.879-4.83-4.024-1.857-8.593-1.123-11.719-.181-3.656 1.102-7.439 3.106-10.377 5.501C.614 9.531-.695 12.269.343 14.73c1.066 2.521 3.666 4.099 6.18 5.624.813.492 1.585.961 2.281 1.444-.209.102-.423.206-.641.31-2.111 1.023-4.505 2.174-5.833 4.076-.964 1.386-1.145 2.765-.536 4.1.325.71.903 1.193 1.705 1.433.417.118.85.176 1.284.171 1.563 0 3.283-.632 4.219-1.216 1.654-1.038 2.725-2.432 3.186-4.143.41-1.522.311-3.034-.284-4.384l2.027-1.022c-.978 3.25-.228 5.191.595 6.262.303.395.85.632 1.462.643s1.174-.219 1.491-.611c.601-.745 1.045-1.616 1.454-2.487-.022.569.005 1.145.2 1.633.174.44.461.731.831.843.394.12.855.019 1.299-.284 2.001-1.369 3.37-4.657 4.47-7.299.156-.376.306-.737.451-1.074.272.974.651 1.914 1.129 2.805.107.193.098.278-.047.437-.218.238-.521.526-.842.831-.973.923-2.185 2.076-2.347 3.09-.063.406.217.776.651.86 1.306.26 2.88-.12 4.211-1.016 1.21-.812 1.665-1.945 1.354-3.357-.301-1.36.386-3.048 2.039-5.021.271 1.131.632 2.046 1.13 2.846l-.014.011c-1.204 1.052-2.855 2.492-2.598 4.239a1.19 1.19 0 0 0 .504.832 1.286 1.286 0 0 0 1.011.186c1.577-.331 2.764-.998 3.627-2.038s.548-2.191.257-3.085c2.257-.612 4.267-.597 6.148.045 1.056.361 1.814.954 2.251 1.773.55 1.03.253 1.981-.839 2.677-.335.214-.497.345-.507.51a.24.24 0 0 0 .091.202c.126.104.516.284 1.398-.271.813-.51 1.289-1.204 1.411-2.076.025-.24.024-.483-.001-.723zm-36.086 2.263-.009.116c-.141 1.322-.813 2.474-2 3.431-.746.601-1.556.971-2.28 1.041-.506.049-.873-.02-1.091-.205-.163-.138-.251-.345-.271-.632-.148-2.3 3.459-4.586 5.49-5.338a4.65 4.65 0 0 1 .161 1.588zm9.239-6.488c-.334 1.904-1.308 5.498-2.839 6.893-.073.067-.134.09-.163.084s-.05-.04-.072-.09c-.511-1.184-.322-3.185.451-4.757.595-1.212 1.444-2.014 2.394-2.257a.448.448 0 0 1 .121-.017.142.142 0 0 1 .09.024.156.156 0 0 1 .017.12zm7.538 6.941c-.288.301-.683.26-.59.15l1.466-1.556c-.118.535-.468.979-.877 1.407zm6.082-1.346c-.139.069-.29.111-.445.125-.042-.819.752-1.741 1.535-2.355.21.854-.22 1.757-1.09 2.23z" style="fill:var(--color1, #fff)"/></symbol><symbol id="icon-healthicons_dhis2-logo" viewBox="0 0 32 32"><path fill="#fff" d="m16.639 10.201 6.219 3.937-1.16.844-5.749-3.639-5.693 3.637-1.152-.847 6.151-3.929a1.283 1.283 0 0 1 1.383-.003z" style="fill:var(--color1, #fff)"/><path fill="#fff" d="m4.557 13.942 10.63 7.806a1.283 1.283 0 0 0 1.524.003l10.727-7.807c.779-.567.741-1.773-.07-2.287L16.639 4.866a1.286 1.286 0 0 0-1.383.003L4.627 11.661c-.805.514-.843 1.713-.071 2.28zm.788-1.157L15.95 6.01l10.709 6.78c.005.011.008.022.008.034s-.002.025-.007.037l-.001.003-.005.004-10.703 7.787-10.605-7.787a.018.018 0 0 1-.005-.004l-.002-.004c-.005-.011-.007-.024-.006-.036s.003-.023.008-.034l.001-.002.003-.003z" style="fill:var(--color1, #fff)"/><path fill="#fff" d="m5.491 16.443 1.152.847-1.298.829-.003.003-.001.002a.076.076 0 0 0-.008.033.085.085 0 0 0 .007.039l.001.001.005.004 10.605 7.787 10.71-7.795a.094.094 0 0 0-.002-.071l-.001-.002-.003-.002-1.32-.836 1.16-.843.873.553c.811.513.849 1.72.07 2.287l-10.727 7.806a1.286 1.286 0 0 1-1.524-.003l-10.63-7.807c-.772-.567-.735-1.765.071-2.28l.864-.552z" style="fill:var(--color1, #fff)"/></symbol><symbol id="icon-ph_meta-logo-light" viewBox="0 0 32 32"><path fill="#fff" d="M29.75 18.664c0 1.969-.384 3.646-1.11 4.851-.881 1.462-2.25 2.235-3.96 2.235-3.343 0-5.788-4.564-8.375-9.396-2.162-4.032-4.611-8.604-7.055-8.604-2.91 0-5.5 6.104-5.5 10.914 0 1.696.31 3.105.895 4.077.612 1.015 1.487 1.509 2.675 1.509 2.02 0 4.039-3.133 5.75-6.196a.75.75 0 0 1 1.304.731c-1.875 3.37-4.125 6.966-7.055 6.966-1.709 0-3.079-.773-3.96-2.235-.726-1.205-1.11-2.883-1.11-4.851 0-5.061 2.726-12.414 7-12.414 3.343 0 5.787 4.564 8.375 9.396 2.161 4.032 4.61 8.604 7.055 8.604 1.188 0 2.063-.494 2.675-1.509.585-.973.895-2.381.895-4.077 0-4.81-2.589-10.914-5.5-10.914-1.125 0-2.364.97-3.767 2.966a.75.75 0 0 1-1.354-.304.743.743 0 0 1 .126-.56c1.089-1.546 2.791-3.603 4.995-3.603 4.274 0 7 7.353 7 12.414z" style="fill:var(--color1, #fff)"/></symbol><symbol id="icon-game-icons_corporal" viewBox="0 0 32 32"><path fill="#fff" d="M15.999 5.819c-1.85 2.98-5.912 7.847-9.374 10.281v3.306c3.32-2.433 6.57-5.784 8.785-9.107l.59-.885.59.885c2.208 3.313 5.498 6.643 8.785 9.092v-3.287c-3.524-2.434-7.541-7.309-9.376-10.285zm0 6.775c-1.85 2.98-5.912 7.848-9.374 10.282v3.305c3.32-2.433 6.57-5.784 8.785-9.107l.59-.885.59.885c2.208 3.313 5.498 6.644 8.785 9.092v-3.287c-3.524-2.434-7.541-7.309-9.376-10.285z" style="fill:var(--color1, #fff)"/></symbol><symbol id="icon-system-uicons_diamond" viewBox="0 0 32 32"><path fill="none" stroke="#fff" stroke-linecap="round" stroke-linejoin="round" stroke-width="0.6154" d="m28.19 12.19-4.571-6.095H8.395L3.81 12.19m24.38 0L16 27.428M28.19 12.19H3.809M16 27.429 3.809 12.191M16 27.429l-4.571-15.238M16 27.429l4.571-15.238" style="stroke:var(--color1, #fff)"/><path fill="none" stroke="#fff" stroke-linecap="round" stroke-linejoin="round" stroke-width="0.6154" d="m8.395 6.095 3.034 6.095L16 6.095l4.571 6.095 3.048-6.095" style="stroke:var(--color1, #fff)"/></symbol><symbol id="icon-arcticons_thunder" viewBox="0 0 32 32"><path fill="none" stroke="#fff" stroke-linecap="round" stroke-linejoin="round" stroke-width="0.6154" d="M11.105 27.17c1.754-1.103 2.945-4.855.685-6.823l-5.275 7.735c-.427.624-.2 1.289 1.13.67l13.127-6.117a2.152 2.152 0 0 0 1.001-2.879l-.004-.008-4.56-9.85c-.547-1.126.323-2.903 1.924-4.209m1.761-.859c-1.753 1.103-2.945 4.855-.685 6.823l5.275-7.735c.427-.624.2-1.289-1.13-.67L11.227 9.365a2.152 2.152 0 0 0-1.001 2.879l.004.008 4.56 9.85c.547 1.126-.323 2.903-1.924 4.21" style="stroke:var(--color1, #fff)"/></symbol><symbol id="icon-bi_chevron-right" viewBox="0 0 32 32"><path fill="#fff" d="M9.292 3.292A.991.991 0 0 1 10 2.999a1.002 1.002 0 0 1 .708.293l12 12a.991.991 0 0 1 .293.708 1.002 1.002 0 0 1-.293.708l-12 12A1 1 0 0 1 8.999 28a1 1 0 0 1 .293-.708L20.586 16 9.292 4.708A.991.991 0 0 1 8.999 4a1.002 1.002 0 0 1 .293-.708z" style="fill:var(--color1, #fff)"/></symbol><symbol id="icon-bi_chevron-left" viewBox="0 0 32 32"><path fill="#fff" d="M22.708 3.292a.991.991 0 0 1 .293.708 1.002 1.002 0 0 1-.293.708L11.414 16l11.294 11.292A1 1 0 0 1 22 29.001a1 1 0 0 1-.708-.293l-12-12A.991.991 0 0 1 8.999 16a1.002 1.002 0 0 1 .293-.708l12-12A.991.991 0 0 1 22 2.999a1.006 1.006 0 0 1 .708.293z" style="fill:var(--color1, #fff)"/></symbol><symbol id="icon-bi_heart" viewBox="0 0 32 32"><path fill="#fff" d="m16 5.496-1.434-1.474C11.2.562 5.028 1.756 2.8 6.106c-1.046 2.046-1.282 5 .628 8.77C5.268 18.506 9.096 22.854 16 27.59c6.904-4.736 10.73-9.084 12.572-12.714 1.91-3.772 1.676-6.724.628-8.77C26.972 1.756 20.8.56 17.434 4.02L16 5.496zM16 30C-14.666 9.736 6.558-6.08 15.648 2.286c.12.11.238.224.352.342.113-.118.23-.231.352-.34C25.44-6.084 46.666 9.734 16 30z" style="fill:var(--color1, #fff)"/></symbol><symbol id="icon-bi_x-lg-1" viewBox="0 0 32 32"><path fill="#fff" d="M4.292 5.708A.991.991 0 0 1 3.999 5a1.006 1.006 0 0 1 .618-.925 1.01 1.01 0 0 1 .766 0c.121.05.232.124.325.217L16 14.586 26.292 4.292A.991.991 0 0 1 27 3.999a1.006 1.006 0 0 1 .925.618 1.006 1.006 0 0 1-.217 1.091L17.414 16l10.294 10.292a.991.991 0 0 1 .293.708 1.006 1.006 0 0 1-.618.925 1.01 1.01 0 0 1-.766 0 1.002 1.002 0 0 1-.325-.217L16 17.414 5.708 27.708a.991.991 0 0 1-.708.293 1.006 1.006 0 0 1-.925-.618 1.006 1.006 0 0 1 .217-1.091L14.586 16 4.292 5.708z" style="fill:var(--color1, #fff)"/></symbol><symbol id="icon-bi_gem" viewBox="0 0 32 32"><path fill="#fff" d="M6.2 1.4A.995.995 0 0 1 7 1h18a.993.993 0 0 1 .8.4l5.952 7.948c.298.37.312.9.02 1.288L16.8 30.6a.995.995 0 0 1-.8.4.993.993 0 0 1-.8-.4l-15-20a1 1 0 0 1 0-1.2l6-8zm22.772 7.57L25.36 4.15l-1.552 4.826 5.164-.006zm-7.266.008L23.628 3H8.372l1.926 5.99 11.408-.012zM10.94 10.99 16 26.732l5.064-15.752-10.124.01zM8.198 8.992l-1.56-4.844-3.636 4.85 5.196-.006zM2.998 11l10.226 13.634-4.384-13.64L2.998 11zm15.778 13.634 10.246-13.66-5.856.004-4.39 13.656z" style="fill:var(--color1, #fff)"/></symbol><symbol id="icon-bi_check2-circle" viewBox="0 0 32 32"><path fill="#fff" d="M5 16a10.998 10.998 0 0 1 16.499-9.528 1.003 1.003 0 0 0 1.36-.369 1.003 1.003 0 0 0-.36-1.363A12.995 12.995 0 0 0 6.807 6.806 13.005 13.005 0 0 0 4.74 22.498a13.001 13.001 0 0 0 21.571 1.416 13 13 0 0 0 2.687-7.913.997.997 0 0 0-1-1 .997.997 0 0 0-1 1 11 11 0 0 1-22 0z" style="fill:var(--color1, #fff)"/><path fill="#fff" d="M30.708 6.708A.991.991 0 0 0 31.001 6a1.006 1.006 0 0 0-.618-.925 1.006 1.006 0 0 0-1.091.217L16 18.586l-5.292-5.294a.991.991 0 0 0-.708-.293 1.002 1.002 0 0 0-.708 1.709l6 6a.991.991 0 0 0 .708.293 1.002 1.002 0 0 0 .708-.293l14-14z" style="fill:var(--color1, #fff)"/></symbol><symbol id="icon-bi_x-octagon" viewBox="0 0 32 32"><path fill="#fff" d="M9.08.292A.998.998 0 0 1 9.786 0h12.428c.265 0 .519.105.706.292l8.788 8.788a.998.998 0 0 1 .292.706v12.428a.998.998 0 0 1-.292.706l-8.788 8.788a.998.998 0 0 1-.706.292H9.786a.998.998 0 0 1-.706-.292L.292 22.92A.998.998 0 0 1 0 22.214V9.786c0-.265.105-.519.292-.706L9.08.292zM10.2 2 2 10.2v11.6l8.2 8.2h11.6l8.2-8.2V10.2L21.8 2H10.2z" style="fill:var(--color1, #fff)"/><path fill="#fff" d="M9.292 9.292A.991.991 0 0 1 10 8.999a1.002 1.002 0 0 1 .708.293L16 14.586l5.292-5.294A.991.991 0 0 1 22 8.999a1.002 1.002 0 0 1 .708 1.709L17.414 16l5.294 5.292a.991.991 0 0 1 .293.708 1.006 1.006 0 0 1-.618.925 1.006 1.006 0 0 1-1.091-.217L16 17.414l-5.292 5.294a.991.991 0 0 1-.708.293 1.002 1.002 0 0 1-.708-1.709L14.586 16l-5.294-5.292A.991.991 0 0 1 8.999 10a1.002 1.002 0 0 1 .293-.708z" style="fill:var(--color1, #fff)"/></symbol><symbol id="icon-bi_exclamation-triangle" viewBox="0 0 32 32"><path fill="#fff" d="M15.876 4.032c.039-.021.083-.033.128-.032s.087.011.126.032a.289.289 0 0 1 .108.114L29.952 27.48a.35.35 0 0 1 .004.366.328.328 0 0 1-.108.12.237.237 0 0 1-.132.034H2.292a.237.237 0 0 1-.132-.034.32.32 0 0 1-.108-.12.35.35 0 0 1 .004-.366L15.768 4.146a.289.289 0 0 1 .108-.114zm2.088-.9a2.26 2.26 0 0 0-3.92 0L.33 26.466C-.584 28.022.512 30 2.29 30h27.426c1.778 0 2.876-1.98 1.96-3.534L17.964 3.132z" style="fill:var(--color1, #fff)"/><path fill="#fff" d="M14.004 24a2.004 2.004 0 0 1 .586-1.414 1.986 1.986 0 0 1 1.414-.585 2.004 2.004 0 0 1 1.848 1.234 2 2 0 1 1-3.848.765zm.196-12.01a1.812 1.812 0 0 1 1.799-2.001c.254 0 .505.053.736.157s.439.254.609.443.298.411.376.652c.078.241.105.496.078.749l-.7 7.014a1.107 1.107 0 0 1-1.1 1.01 1.105 1.105 0 0 1-1.1-1.01l-.7-7.014z" style="fill:var(--color1, #fff)"/></symbol><symbol id="icon-bi_alarm" viewBox="0 0 32 32"><path fill="#fff" d="M17 11a.997.997 0 0 0-1-1 .997.997 0 0 0-1 1v6.724l-2.858 4.76a1.001 1.001 0 1 0 1.716 1.03l3-5A1 1 0 0 0 17 18v-7z" style="fill:var(--color1, #fff)"/><path fill="#fff" d="M13 0a.997.997 0 0 0-1 1 .997.997 0 0 0 1 1h1v2.14a14.002 14.002 0 0 0-6.546 24.947L6.25 30.291a.997.997 0 0 0-.001 1.415 1.001 1.001 0 0 0 1.415.001l1.492-1.492A13.936 13.936 0 0 0 16 31.999a13.936 13.936 0 0 0 6.844-1.784l1.492 1.492a1 1 0 1 0 1.414-1.416l-1.202-1.204A14.002 14.002 0 0 0 18 4.138v-2.14h1a.997.997 0 0 0 1-1 .997.997 0 0 0-1-1h-6zm2.076 6.036a12.003 12.003 0 0 1 12.915 12.426A11.997 11.997 0 0 1 16 30a12 12 0 0 1-.924-23.964zM0 7c0 1.506.666 2.858 1.72 3.774A16.071 16.071 0 0 1 8.774 3.72a4.997 4.997 0 0 0-5.525-1.403A4.998 4.998 0 0 0 0 7zm27-5a4.988 4.988 0 0 0-3.774 1.72 16.066 16.066 0 0 1 7.054 7.054 4.997 4.997 0 0 0 1.403-5.525A4.998 4.998 0 0 0 27 2z" style="fill:var(--color1, #fff)"/></symbol><symbol id="icon-bi_info-circle" viewBox="0 0 32 32"><path fill="#fff" d="M16 30a14 14 0 1 1 0-28 14 14 0 0 1 0 28zm0 2a16.003 16.003 0 0 0 16-16A15.997 15.997 0 0 0 16 0 15.997 15.997 0 0 0 0 16a16.003 16.003 0 0 0 16 16z" style="fill:var(--color1, #fff)"/><path fill="#fff" d="m17.86 13.176-4.58.574-.164.76.9.166c.588.14.704.352.576.938l-1.476 6.936c-.388 1.794.21 2.638 1.616 2.638 1.09 0 2.356-.504 2.93-1.196l.176-.832c-.4.352-.984.492-1.372.492-.55 0-.75-.386-.608-1.066l2.002-9.41zM18 9a2 2 0 1 1-4.001-.001A2 2 0 0 1 18 9z" style="fill:var(--color1, #fff)"/></symbol></defs></svg>